<?xml version="1.0" encoding="UTF-8"?>
<svg version="1.1" xmlns="http://www.w3.org/2000/svg" width="340" height="130">
<path d="M0 0 C-0.43617873 5.49585202 -1.27612489 10.17571362 -3.09765625 15.359375 C-8.86524073 32.23767418 -8.84527712 47.96138081 -0.84765625 64.36328125 C-0.56792969 64.90339844 -0.28820312 65.44351563 0 66 C0.125 68.75 0.125 68.75 0 71 C-7.00647106 70.42451983 -13.38337035 68.95516482 -20.125 67 C-23.74053503 65.95998178 -27.36236049 64.95968516 -31 64 C-32.09957031 63.69191406 -33.19914062 63.38382813 -34.33203125 63.06640625 C-40.39073692 62.95671722 -45.84219425 65.08185122 -51.5625 66.9375 C-53.95722914 67.7041717 -56.3543049 68.4635605 -58.75390625 69.21484375 C-60.33667358 69.72712524 -60.33667358 69.72712524 -61.95141602 70.24975586 C-65.08507912 71.02093763 -67.7863779 71.13739595 -71 71 C-70.44050215 65.36730257 -69.35706329 60.35753005 -67.5625 55 C-61.64823332 37.02905316 -64.20170781 23.48132277 -71 6 C-71.37966646 4.34327363 -71.73760976 2.67929755 -72 1 C-64.15265498 1.20750191 -57.21329425 3.30796802 -49.83203125 5.74609375 C-41.8488942 8.48451791 -41.8488942 8.48451791 -33.5 8.8125 C-32.6234375 8.73644531 -31.746875 8.66039062 -30.84375 8.58203125 C-28.00250436 8.00051257 -25.61454292 6.99909217 -22.98095703 5.80883789 C-19.17002248 4.25280804 -15.17002087 3.32573167 -11.1875 2.3125 C-10.32962891 2.08755859 -9.47175781 1.86261719 -8.58789062 1.63085938 C-2.287519 0 -2.287519 0 0 0 Z " fill="#010101" transform="translate(100,29)"/>
<path d="M0 0 C2.64 0 5.28 0 8 0 C9.85529552 5.37382856 11.70660754 10.74900616 13.55419922 16.12548828 C14.18363178 17.95529457 14.81416201 19.78472364 15.44580078 21.61376953 C16.35215705 24.23893016 17.25459058 26.86541054 18.15625 29.4921875 C18.44060913 30.31306854 18.72496826 31.13394958 19.01794434 31.97970581 C21 37.77225659 21 37.77225659 21 40 C19.02 40 17.04 40 15 40 C13.515 35.05 13.515 35.05 12 30 C6.72 30.33 1.44 30.66 -4 31 C-4.99 33.97 -5.98 36.94 -7 40 C-8.98 40 -10.96 40 -13 40 C-12.35182549 35.0899941 -10.95180654 30.61451938 -9.27734375 25.9765625 C-9.01240616 25.23038666 -8.74746857 24.48421082 -8.47450256 23.71542358 C-7.63351712 21.35024984 -6.7856266 18.98762118 -5.9375 16.625 C-5.36347321 15.01448647 -4.7899007 13.40381095 -4.21679688 11.79296875 C-2.81644766 7.86008518 -1.40990353 3.92946802 0 0 Z M3 7 C2.16112944 9.43572059 1.32873471 11.87333217 0.5 14.3125 C0.26152344 15.00279297 0.02304688 15.69308594 -0.22265625 16.40429688 C-1.23208263 19.38931489 -2 21.82658914 -2 25 C1.96 25 5.92 25 10 25 C8.37727326 18.74091114 6.73384207 12.85823301 4 7 C3.67 7 3.34 7 3 7 Z " fill="#010101" transform="translate(137,46)"/>
<path d="M0 0 C2.64 0 5.28 0 8 0 C9.85529552 5.37382856 11.70660754 10.74900616 13.55419922 16.12548828 C14.18363178 17.95529457 14.81416201 19.78472364 15.44580078 21.61376953 C16.35215705 24.23893016 17.25459058 26.86541054 18.15625 29.4921875 C18.44060913 30.31306854 18.72496826 31.13394958 19.01794434 31.97970581 C21 37.77225659 21 37.77225659 21 40 C19.02 40 17.04 40 15 40 C13.515 35.05 13.515 35.05 12 30 C6.72 30.33 1.44 30.66 -4 31 C-4.99 33.97 -5.98 36.94 -7 40 C-8.98 40 -10.96 40 -13 40 C-12.35182549 35.0899941 -10.95180654 30.61451938 -9.27734375 25.9765625 C-9.01240616 25.23038666 -8.74746857 24.48421082 -8.47450256 23.71542358 C-7.63351712 21.35024984 -6.7856266 18.98762118 -5.9375 16.625 C-5.36347321 15.01448647 -4.7899007 13.40381095 -4.21679688 11.79296875 C-2.81644766 7.86008518 -1.40990353 3.92946802 0 0 Z M3 7 C2.16112944 9.43572059 1.32873471 11.87333217 0.5 14.3125 C0.26152344 15.00279297 0.02304687 15.69308594 -0.22265625 16.40429688 C-1.23208263 19.38931489 -2 21.82658914 -2 25 C1.96 25 5.92 25 10 25 C8.37727326 18.74091114 6.73384207 12.85823301 4 7 C3.67 7 3.34 7 3 7 Z " fill="#010101" transform="translate(281,46)"/>
<path d="M0 0 C1.65 0 3.3 0 5 0 C5.33 0.99 5.66 1.98 6 3 C6.55945313 2.5153125 7.11890625 2.030625 7.6953125 1.53125 C11.58263615 -1.05151419 15.50117817 -0.73797708 20 0 C24.13085592 1.82094873 25.80519672 4.50028724 27.4375 8.6875 C28.52682296 14.55650534 28.08755087 20.44425546 25.75 25.9375 C23.22285134 28.9159252 21.02877163 30.69959365 17.07421875 31.28515625 C11.99578903 31.5051259 10.79824849 30.87894909 6 28 C5.67 32.62 5.34 37.24 5 42 C3.35 42 1.7 42 0 42 C0 28.14 0 14.28 0 0 Z M7 7 C4.34231205 10.98653192 4.86968628 15.11573291 5.46875 19.68359375 C5.90653666 22.16474264 5.90653666 22.16474264 7.625 24.625 C10.98430048 26.56985817 13.18485224 26.54502111 17 26 C19.36497439 24.13291495 20.66030715 22.67938569 22 20 C22.51812037 15.20101625 22.66497913 11.2532299 20.375 6.9375 C15.672353 3.10113008 11.64474425 3.1293798 7 7 Z " fill="#010101" transform="translate(164,56)"/>
<path d="M0 0 C3.92774979 2.00395397 4.74253959 3.32569893 6.3125 7.4375 C6.89187884 10.43973581 7.26777693 12.9651948 7 16 C6 17 6 17 4.05053711 17.11352539 C3.2178833 17.10828857 2.38522949 17.10305176 1.52734375 17.09765625 C0.62822266 17.09443359 -0.27089844 17.09121094 -1.19726562 17.08789062 C-2.14279297 17.07951172 -3.08832031 17.07113281 -4.0625 17.0625 C-5.01189453 17.05798828 -5.96128906 17.05347656 -6.93945312 17.04882812 C-9.29303065 17.0370011 -11.64648477 17.02052025 -14 17 C-12.47444034 21.81122847 -12.47444034 21.81122847 -9 25 C-4.00660479 25.36988113 -1.86326651 25.06396999 2 22 C4.25 22.3125 4.25 22.3125 6 23 C5.77069943 26.21020798 4.93806165 27.05574452 2.5 29.25 C-1.87479156 31.43739578 -5.19712876 31.74573232 -10 31 C-12.875 29.6875 -12.875 29.6875 -15 28 C-15.556875 27.5875 -16.11375 27.175 -16.6875 26.75 C-20.41279957 21.78293391 -20.30637608 16.27178335 -19.54296875 10.37109375 C-18.60374634 6.26959734 -16.79340639 3.13062577 -13.203125 0.8671875 C-8.94695415 -0.80811379 -4.48599575 -0.52580662 0 0 Z M-12 6 C-12.66 7.98 -13.32 9.96 -14 12 C-9.05 12 -4.1 12 1 12 C0.67 10.02 0.34 8.04 0 6 C-4.09833023 3.26777984 -7.93265194 2.91442561 -12 6 Z " fill="#010101" transform="translate(217,56)"/>
<path d="M0 0 C2.625 -0.625 2.625 -0.625 6 0 C8.42504235 3.11323005 10.22831653 6.48176333 12 10 C12.43570313 9.278125 12.87140625 8.55625 13.3203125 7.8125 C14.21363281 6.4203125 14.21363281 6.4203125 15.125 5 C15.70507812 4.071875 16.28515625 3.14375 16.8828125 2.1875 C19 0 19 0 22.2421875 -0.3125 C23.15226562 -0.209375 24.06234375 -0.10625 25 0 C24.57847656 0.72445312 24.15695313 1.44890625 23.72265625 2.1953125 C23.17480469 3.16210938 22.62695312 4.12890625 22.0625 5.125 C21.24458984 6.55199219 21.24458984 6.55199219 20.41015625 8.0078125 C18.90825738 11.19466717 18.1104606 13.47446575 18 17 C19.37444689 19.99790584 19.37444689 19.99790584 21.4375 22.75 C25 27.85322896 25 27.85322896 25 30 C22.375 30.625 22.375 30.625 19 30 C17.13410723 27.54280318 15.72637302 25.01734197 14.296875 22.28515625 C13.2077419 19.87172401 13.2077419 19.87172401 11 19 C10.731875 19.70125 10.46375 20.4025 10.1875 21.125 C8.9318551 24.1649824 7.49764877 27.0727774 6 30 C4.02 30 2.04 30 0 30 C1.51813668 25.72161482 3.70580967 22.03309244 6.07421875 18.18359375 C7.16078625 16.09255781 7.16078625 16.09255781 6.8359375 14.04296875 C5.78210749 11.467487 4.42278467 9.22757855 2.9375 6.875 C0 2.21647059 0 2.21647059 0 0 Z " fill="#010101" transform="translate(227,56)"/>
<path d="M0 0 C1.65 0 3.3 0 5 0 C5 13.2 5 26.4 5 40 C3.35 40 1.7 40 0 40 C0 26.8 0 13.6 0 0 Z " fill="#010101" transform="translate(309,46)"/>
</svg>
